<?xml version="1.0" standalone="no"?>
<!DOCTYPE svg PUBLIC "-//W3C//DTD SVG 20010904//EN"
 "http://www.w3.org/TR/2001/REC-SVG-20010904/DTD/svg10.dtd">
<svg version="1.0" xmlns="http://www.w3.org/2000/svg"
 width="421.000000pt" height="421.000000pt" viewBox="0 0 421.000000 421.000000"
 preserveAspectRatio="xMidYMid meet">
<metadata>
Created by potrace 1.14, written by Peter Selinger 2001-2017
</metadata>
<g transform="translate(0.000000,421.000000) scale(0.100000,-0.100000)"
fill="#000000" stroke="none">
<path d="M1031 3851 c-16 -18 -30 -39 -30 -49 -2 -59 -18 -217 -21 -217 -2 0
-4 -9 -5 -20 -3 -20 -9 -52 -21 -110 -4 -16 -8 -39 -9 -50 -2 -11 -4 -20 -5
-20 -1 0 -3 -7 -5 -15 -2 -8 -6 -26 -9 -40 -5 -24 -9 -42 -22 -92 -7 -32 -10
-41 -17 -58 -5 -13 -15 -47 -34 -120 -3 -8 -6 -24 -8 -35 -2 -11 -4 -20 -5
-20 -3 0 -12 -41 -15 -70 -1 -16 -4 -32 -5 -35 -2 -3 -4 -18 -5 -35 -2 -16 -4
-34 -5 -40 -2 -5 -4 -23 -6 -40 -5 -48 -12 -97 -18 -132 -3 -18 -8 -47 -11
-64 -2 -17 -7 -39 -10 -49 -3 -10 -8 -29 -11 -42 -8 -35 -12 -53 -15 -58 -1
-3 -3 -9 -4 -15 -2 -5 -4 -13 -5 -17 -1 -5 -4 -12 -5 -18 -1 -5 -4 -12 -5 -15
-1 -3 -3 -8 -4 -12 -1 -5 -7 -17 -13 -29 -7 -11 -14 -32 -17 -47 -2 -14 -9
-35 -16 -46 -6 -12 -8 -21 -6 -21 3 0 -4 -21 -15 -46 -11 -26 -17 -49 -14 -52
3 -3 1 -10 -5 -16 -5 -7 -12 -27 -15 -45 -3 -19 -10 -42 -16 -52 -5 -11 -8
-19 -5 -19 2 0 -5 -28 -16 -62 -11 -35 -21 -70 -23 -78 -2 -8 -13 -46 -25 -85
-11 -38 -22 -74 -23 -80 -1 -5 -6 -15 -9 -21 -4 -6 -9 -24 -12 -40 -3 -16 -15
-56 -26 -89 -12 -33 -23 -67 -25 -75 -2 -8 -18 -58 -35 -110 -18 -52 -33 -99
-35 -105 -1 -5 -5 -19 -9 -30 -5 -11 -14 -37 -22 -57 -8 -21 -11 -38 -8 -38 4
0 1 -7 -6 -15 -7 -8 -10 -15 -7 -15 4 0 -1 -19 -9 -42 -9 -24 -17 -50 -19 -58
-2 -8 -4 -16 -5 -17 -2 -2 -3 -6 -5 -10 -1 -5 -4 -15 -8 -23 -5 -14 -29 -88
-32 -100 -1 -3 -5 -13 -9 -22 -4 -9 -8 -22 -10 -30 -1 -7 -5 -19 -9 -25 -5 -7
-6 -13 -3 -13 3 0 -2 -16 -10 -35 -8 -19 -14 -37 -14 -40 -1 -6 -9 -32 -26
-77 -8 -21 -11 -38 -8 -38 4 0 2 -6 -4 -13 -15 -17 7 -59 32 -63 10 -1 28 7
40 19 21 21 31 22 181 22 154 0 160 1 160 20 0 12 8 33 17 47 16 24 24 50 33
103 2 11 4 20 5 20 1 0 4 14 6 30 3 33 9 63 19 110 4 17 8 37 10 45 2 8 4 16
5 18 2 1 3 5 4 10 1 4 5 13 9 20 5 6 6 12 3 12 -3 0 -1 12 5 27 6 16 12 35 14
43 3 8 12 35 21 60 15 43 18 53 28 100 3 11 8 25 11 30 6 10 15 43 19 70 1 9
5 21 10 28 4 6 5 16 1 21 -3 5 -1 12 4 15 4 3 12 20 16 38 4 18 9 38 11 43 9
31 25 102 28 133 6 52 57 70 129 44 23 -8 85 -16 137 -17 52 -2 101 -3 107 -4
25 -2 50 -73 48 -136 0 -33 5 -79 12 -103 6 -23 12 -44 13 -47 0 -3 0 -6 1 -7
1 -2 2 -16 4 -33 2 -16 6 -40 9 -52 13 -49 26 -103 32 -133 3 -14 10 -43 16
-65 5 -22 12 -49 14 -60 2 -11 7 -33 11 -50 3 -16 6 -64 7 -105 1 -41 4 -79 7
-85 2 -5 5 -56 4 -112 0 -55 3 -99 7 -97 4 2 9 1 11 -4 3 -4 89 -7 192 -7 103
0 189 -3 192 -8 2 -4 8 -5 12 -3 4 3 14 -6 21 -19 17 -32 54 -33 75 -1 15 22
14 28 -23 97 -45 85 -72 140 -129 259 -23 47 -72 148 -109 225 -37 77 -68 142
-69 145 -1 3 -9 22 -18 44 -9 21 -17 43 -17 48 0 5 -5 19 -12 31 -7 12 -13 28
-14 35 -1 8 -6 21 -10 30 -4 9 -8 19 -9 22 -1 3 -10 32 -20 65 -18 58 -20 66
-29 103 -3 9 -5 19 -6 22 -1 3 -3 10 -5 15 -1 6 -3 12 -4 15 -2 3 -4 14 -6 25
-4 31 -22 108 -25 113 -2 1 -4 11 -5 22 -1 11 -3 21 -4 23 -4 4 -13 62 -12 79
0 10 -4 20 -9 23 -5 3 -7 12 -4 19 3 8 1 17 -5 20 -6 4 -8 13 -4 21 3 9 0 22
-7 30 -6 8 -9 19 -5 25 3 5 3 16 -2 23 -4 6 -8 21 -10 32 -3 33 -20 110 -23
110 -1 0 -3 9 -5 20 -4 32 -22 110 -25 110 -1 0 -4 13 -6 30 -3 16 -9 35 -15
41 -5 6 -6 14 -2 17 3 4 1 13 -5 20 -7 8 -9 17 -6 20 3 3 2 12 -2 19 -4 7 -9
19 -10 28 -3 20 -12 55 -14 55 -2 0 -7 22 -15 60 -5 26 -13 59 -15 65 -1 3 -3
10 -5 15 -1 6 -3 13 -5 18 -1 4 -3 15 -4 25 -1 9 -6 33 -11 52 -5 19 -10 42
-11 50 -4 23 -12 55 -14 55 -1 0 -4 14 -6 30 -8 57 -12 80 -14 80 -2 0 -7 38
-13 93 -1 15 -5 32 -8 37 -3 6 -5 37 -4 70 1 33 -1 65 -5 70 -6 9 -6 213 0
225 1 3 4 43 5 90 2 47 6 110 10 140 13 110 12 131 -12 147 -21 14 -25 13 -52
-16z m13 -1391 c27 -10 55 -56 61 -98 1 -15 4 -29 5 -32 1 -3 3 -9 4 -15 2
-10 10 -30 41 -100 21 -47 27 -63 23 -67 -1 -2 4 -13 11 -26 7 -13 15 -33 17
-45 11 -48 16 -72 18 -82 1 -5 4 -14 7 -20 3 -5 4 -32 3 -60 0 -27 1 -54 5
-60 3 -5 6 -14 7 -20 7 -42 7 -52 1 -71 -9 -26 -32 -30 -152 -27 -247 7 -266
12 -268 64 0 31 11 87 22 108 5 9 12 33 15 54 3 21 11 47 16 58 6 10 8 19 4
19 -3 0 -1 7 6 15 7 8 10 15 7 15 -3 0 1 16 9 35 8 19 11 35 8 35 -4 0 -1 7 6
15 7 9 10 18 7 22 -4 3 -2 12 5 20 6 7 8 16 5 19 -3 3 -2 17 3 30 12 31 21 70
25 114 6 59 14 84 32 98 20 14 16 14 47 2z"/>
<path d="M2976 3713 c-5 -5 -47 -10 -141 -18 -77 -6 -75 2 -60 -260 15 -242
24 -517 29 -900 2 -148 5 -270 6 -270 1 0 4 -81 5 -180 3 -167 5 -205 20 -325
3 -25 7 -58 9 -75 2 -16 5 -30 6 -30 1 0 4 -18 6 -40 1 -22 6 -62 9 -90 14
-119 25 -423 16 -440 -3 -5 -6 -71 -7 -145 -1 -74 -3 -135 -4 -135 -7 0 -6
-302 1 -316 12 -23 42 -29 65 -12 16 12 19 29 21 126 2 62 5 173 8 247 9 225
11 551 4 556 -3 2 -5 25 -3 51 1 26 -1 52 -4 58 -4 5 -7 24 -9 40 -1 27 -5 55
-17 160 -2 17 -5 30 -6 30 -1 0 -4 20 -6 45 -2 25 -6 77 -9 115 -4 39 -7 181
-8 318 -2 280 -9 258 83 263 25 1 57 7 71 12 15 6 30 8 33 5 3 -3 12 -1 19 5
8 7 17 9 20 5 4 -3 13 -1 20 5 8 7 16 10 19 7 3 -3 21 2 41 10 20 8 38 15 39
14 9 -3 79 15 83 22 3 4 12 6 19 3 8 -3 17 -1 20 5 4 6 13 8 20 5 8 -3 17 -1
20 5 4 6 13 8 20 5 8 -3 17 -1 20 5 4 6 13 8 20 5 8 -3 17 0 21 5 3 6 11 9 16
5 5 -3 15 -1 22 4 7 6 14 10 17 11 12 0 47 13 70 26 14 7 57 30 96 50 143 74
311 231 365 342 11 23 21 46 21 50 0 4 3 13 8 18 4 6 11 26 15 45 38 172 14
267 -86 340 -38 27 -129 67 -174 76 -11 2 -31 7 -45 10 -14 3 -34 7 -45 9 -11
2 -20 4 -20 5 0 1 -7 3 -15 5 -8 2 -26 7 -40 10 -14 4 -34 8 -45 10 -11 2 -22
4 -25 6 -3 1 -9 3 -15 4 -5 2 -12 4 -15 5 -10 3 -95 21 -125 25 -11 2 -20 4
-20 5 0 4 -84 19 -150 26 -22 2 -89 6 -150 9 -60 2 -124 6 -142 8 -18 3 -34 2
-37 0z m279 -274 c6 0 28 2 49 4 23 2 66 -4 100 -15 34 -11 68 -21 76 -22 9
-1 20 -4 25 -8 6 -3 23 -8 38 -12 62 -15 134 -77 145 -125 32 -142 -42 -260
-216 -346 -30 -15 -62 -28 -73 -31 -10 -2 -29 -7 -41 -10 -22 -5 -131 -13
-206 -15 -49 -2 -68 21 -67 79 1 26 4 52 7 57 3 6 4 21 2 35 -2 14 -6 57 -8
95 -6 89 -14 174 -20 201 -11 52 78 125 142 118 20 -3 42 -4 47 -5z"/>
</g>
</svg>
